<?xml version="1.0" encoding="UTF-8" standalone="no"?>
<!-- https://thenounproject.com/icon/question-106023/ -->

<svg
  version="1.1"
  x="0px"
  y="0px"
  viewBox="0 0 80 80"
  xml:space="preserve"
  id="svg7"
  sodipodi:docname="question.svg"
  width="80"
  height="80"
  inkscape:version="1.3 (1:1.3+202307231459+0e150ed6c4)"
  xmlns:inkscape="http://www.inkscape.org/namespaces/inkscape"
  xmlns:sodipodi="http://sodipodi.sourceforge.net/DTD/sodipodi-0.dtd"
  xmlns="http://www.w3.org/2000/svg"
  xmlns:svg="http://www.w3.org/2000/svg"
>
  <defs id="defs7" />
  <sodipodi:namedview
    id="namedview7"
    pagecolor="#ffffff"
    bordercolor="#666666"
    borderopacity="1.0"
    inkscape:showpageshadow="2"
    inkscape:pageopacity="0.0"
    inkscape:pagecheckerboard="0"
    inkscape:deskcolor="#d1d1d1"
    showgrid="true"
    inkscape:zoom="8.16"
    inkscape:cx="50"
    inkscape:cy="45.098039"
    inkscape:window-width="1920"
    inkscape:window-height="1013"
    inkscape:window-x="0"
    inkscape:window-y="0"
    inkscape:window-maximized="1"
    inkscape:current-layer="svg7"
    ><inkscape:grid
      id="grid7"
      units="px"
      originx="0"
      originy="0"
      spacingx="1"
      spacingy="1"
      empcolor="#3f3fff"
      empopacity="0.25098039"
      color="#3f3fff"
      opacity="0.1254902"
      empspacing="5"
      dotted="false"
      gridanglex="30"
      gridanglez="30"
      visible="true"
  /></sodipodi:namedview>
  <circle cx="40.073532" cy="53.750004" r="2.5" id="circle1" />
  <path
    d="m 42.573529,45.75 c 0,-1.3 0.8,-2.4 2.1,-3.1 4,-2.1 6.1,-6.4 5.3,-10.899999 -0.9,-3.9 -4,-7 -7.9,-7.8 -3,-0.6 -6,0.2 -8.3,2.1 -2.4,1.9 -3.7,4.7 -3.7,7.699999 0,1.4 1.1,2.5 2.5,2.5 1.4,0 2.5,-1.1 2.5,-2.5 0,-1.499999 0.7,-2.899999 1.8,-3.899999 1.2,-1 2.7,-1.3 4.2,-1 1.9,0.4 3.5,2 3.9,3.9 0.5,2.599999 -1,4.599999 -2.6,5.499999 -2.9,1.5 -4.8,4.4 -4.8,7.5 v 0.5 c 0,1.4 1.1,2.5 2.5,2.5 1.4,0 2.5,-1.1 2.5,-2.5 z"
    id="path1"
  />
  <path
    d="m 17.573529,41.25 c 1.4,0 2.5,-1.1 2.5,-2.5 0,-1.4 -1.1,-2.5 -2.5,-2.5 H 7.5735295 c -1.4,0 -2.5,1.1 -2.5,2.5 0,1.4 1.1,2.5 2.5,2.5 z"
    id="path2"
  />
  <path
    d="m 72.573529,36.25 h -10 c -1.4,0 -2.5,1.1 -2.5,2.5 0,1.4 1.1,2.5 2.5,2.5 h 10 c 1.4,0 2.5,-1.1 2.5,-2.5 0,-1.4 -1.1,-2.5 -2.5,-2.5 z"
    id="path3"
  />
  <path
    d="m 21.273529,45.55 c -0.5,-1.3 -1.9,-2 -3.2,-1.5 l -9.3999995,3.4 c -1.3,0.5 -2,1.9 -1.5,3.2 0.4,1 1.3,1.6 2.3,1.6 0.3,0 0.6000005,0 0.8999995,-0.2 l 9.4,-3.4 c 1.3,-0.3 2,-1.8 1.5,-3.1 z"
    id="path4"
  />
  <path
    d="m 58.873529,31.950001 c 0.4,1 1.3,1.6 2.3,1.6 0.3,0 0.6,0 0.9,-0.2 l 9.4,-3.4 c 1.3,-0.5 2,-1.9 1.5,-3.2 -0.5,-1.3 -1.9,-2 -3.2,-1.5 l -9.4,3.5 c -1.3,0.4 -2,1.9 -1.5,3.2 z"
    id="path5"
  />
  <path
    d="m 8.6735295,29.950001 9.3999995,3.4 c 0.3,0.1 0.6,0.2 0.9,0.2 1,0 2,-0.6 2.3,-1.6 0.5,-1.3 -0.2,-2.7 -1.5,-3.2 l -9.4,-3.4 c -1.2999995,-0.5 -2.6999995,0.1 -3.1999995,1.4 -0.5,1.3 0.2,2.8 1.5,3.2 z"
    id="path6"
  />
  <path
    d="m 71.473529,47.55 -9.4,-3.5 c -1.3,-0.5 -2.7,0.2 -3.2,1.5 -0.5,1.3 0.2,2.7 1.5,3.2 l 9.4,3.4 c 0.3,0.1 0.6,0.2 0.9,0.2 1,0 2,-0.6 2.3,-1.6 0.5,-1.3 -0.2,-2.8 -1.5,-3.2 z"
    id="path7"
  />
</svg>
